<mxfile host="app.diagrams.net" modified="2021-09-22T03:19:29.250Z" agent="5.0 (Windows NT 10.0; Win64; x64) AppleWebKit/537.36 (KHTML, like Gecko) Chrome/93.0.4577.82 Safari/537.36" etag="JxvyS12se7DhVbS-ra2d" version="15.2.9" type="github" pages="5">
  <diagram id="ZTlKQFre47YzzIQwx9ML" name="Page-1">
    <mxGraphModel dx="1323" dy="854" grid="1" gridSize="10" guides="1" tooltips="1" connect="1" arrows="1" fold="1" page="1" pageScale="1" pageWidth="100" pageHeight="100" math="0" shadow="0">
      <root>
        <mxCell id="0" />
        <mxCell id="1" parent="0" />
        <mxCell id="BazLZGdsGjNeDcXBGyKB-1" value="List" style="swimlane;fontStyle=0;childLayout=stackLayout;horizontal=1;startSize=30;horizontalStack=0;resizeParent=1;resizeParentMax=0;resizeLast=0;collapsible=1;marginBottom=0;" parent="1" vertex="1">
          <mxGeometry x="-180" y="50" width="90" height="134" as="geometry">
            <mxRectangle x="-20" y="40" width="50" height="26" as="alternateBounds" />
          </mxGeometry>
        </mxCell>
        <mxCell id="BazLZGdsGjNeDcXBGyKB-2" value="Item 1" style="text;strokeColor=none;fillColor=none;align=left;verticalAlign=top;spacingLeft=4;spacingRight=4;overflow=hidden;rotatable=0;points=[[0,0.5],[1,0.5]];portConstraint=eastwest;" parent="BazLZGdsGjNeDcXBGyKB-1" vertex="1">
          <mxGeometry y="30" width="90" height="26" as="geometry" />
        </mxCell>
        <mxCell id="BazLZGdsGjNeDcXBGyKB-3" value="Item 2" style="text;strokeColor=none;fillColor=none;align=left;verticalAlign=top;spacingLeft=4;spacingRight=4;overflow=hidden;rotatable=0;points=[[0,0.5],[1,0.5]];portConstraint=eastwest;" parent="BazLZGdsGjNeDcXBGyKB-1" vertex="1">
          <mxGeometry y="56" width="90" height="26" as="geometry" />
        </mxCell>
        <mxCell id="BazLZGdsGjNeDcXBGyKB-4" value="Item 3" style="text;strokeColor=none;fillColor=none;align=left;verticalAlign=top;spacingLeft=4;spacingRight=4;overflow=hidden;rotatable=0;points=[[0,0.5],[1,0.5]];portConstraint=eastwest;" parent="BazLZGdsGjNeDcXBGyKB-1" vertex="1">
          <mxGeometry y="82" width="90" height="26" as="geometry" />
        </mxCell>
        <mxCell id="BazLZGdsGjNeDcXBGyKB-6" value="Item 1" style="text;strokeColor=none;fillColor=none;align=left;verticalAlign=top;spacingLeft=4;spacingRight=4;overflow=hidden;rotatable=0;points=[[0,0.5],[1,0.5]];portConstraint=eastwest;" parent="BazLZGdsGjNeDcXBGyKB-1" vertex="1">
          <mxGeometry y="108" width="90" height="26" as="geometry" />
        </mxCell>
        <mxCell id="BazLZGdsGjNeDcXBGyKB-7" value="List" style="rounded=1;whiteSpace=wrap;html=1;verticalAlign=top;" parent="1" vertex="1">
          <mxGeometry x="-180" width="90" height="30" as="geometry" />
        </mxCell>
        <mxCell id="BazLZGdsGjNeDcXBGyKB-8" value="Set" style="rounded=1;whiteSpace=wrap;html=1;verticalAlign=top;" parent="1" vertex="1">
          <mxGeometry x="-50" width="90" height="30" as="geometry" />
        </mxCell>
        <mxCell id="BazLZGdsGjNeDcXBGyKB-9" value="" style="ellipse;whiteSpace=wrap;html=1;verticalAlign=top;" parent="1" vertex="1">
          <mxGeometry x="-65" y="80.5" width="120" height="80" as="geometry" />
        </mxCell>
        <mxCell id="BazLZGdsGjNeDcXBGyKB-10" value="Set" style="rounded=0;whiteSpace=wrap;html=1;verticalAlign=top;strokeColor=#FFFFFF;" parent="1" vertex="1">
          <mxGeometry x="-45" y="73.5" width="60" height="30" as="geometry" />
        </mxCell>
        <mxCell id="BazLZGdsGjNeDcXBGyKB-11" value="a" style="text;html=1;strokeColor=none;fillColor=none;align=center;verticalAlign=middle;whiteSpace=wrap;rounded=0;" parent="1" vertex="1">
          <mxGeometry x="-55" y="103.5" width="40" height="20" as="geometry" />
        </mxCell>
        <mxCell id="BazLZGdsGjNeDcXBGyKB-12" value="b" style="text;html=1;strokeColor=none;fillColor=none;align=center;verticalAlign=middle;whiteSpace=wrap;rounded=0;" parent="1" vertex="1">
          <mxGeometry x="-25" y="103.5" width="40" height="20" as="geometry" />
        </mxCell>
        <mxCell id="BazLZGdsGjNeDcXBGyKB-13" value="c" style="text;html=1;strokeColor=none;fillColor=none;align=center;verticalAlign=middle;whiteSpace=wrap;rounded=0;" parent="1" vertex="1">
          <mxGeometry x="-45" y="123.5" width="40" height="20" as="geometry" />
        </mxCell>
        <mxCell id="BazLZGdsGjNeDcXBGyKB-14" value="a" style="text;html=1;strokeColor=none;fillColor=none;align=center;verticalAlign=middle;whiteSpace=wrap;rounded=0;" parent="1" vertex="1">
          <mxGeometry x="-15" y="123.5" width="40" height="20" as="geometry" />
        </mxCell>
        <mxCell id="BazLZGdsGjNeDcXBGyKB-15" value="" style="endArrow=none;html=1;strokeWidth=0.7;" parent="1" edge="1">
          <mxGeometry width="50" height="50" relative="1" as="geometry">
            <mxPoint x="-1" y="129.5" as="sourcePoint" />
            <mxPoint x="12.5" y="143.5" as="targetPoint" />
          </mxGeometry>
        </mxCell>
        <mxCell id="BazLZGdsGjNeDcXBGyKB-16" value="" style="endArrow=none;html=1;strokeWidth=0.7;" parent="1" edge="1">
          <mxGeometry width="50" height="50" relative="1" as="geometry">
            <mxPoint x="-2" y="143.5" as="sourcePoint" />
            <mxPoint x="12" y="129.5" as="targetPoint" />
          </mxGeometry>
        </mxCell>
        <mxCell id="BazLZGdsGjNeDcXBGyKB-17" value="Map" style="rounded=1;whiteSpace=wrap;html=1;verticalAlign=top;" parent="1" vertex="1">
          <mxGeometry x="100" width="90" height="30" as="geometry" />
        </mxCell>
        <mxCell id="BazLZGdsGjNeDcXBGyKB-19" value="&lt;font style=&quot;font-size: 10px&quot;&gt;키(key)&lt;/font&gt;" style="rounded=0;whiteSpace=wrap;html=1;strokeColor=#000000;verticalAlign=middle;" parent="1" vertex="1">
          <mxGeometry x="95" y="80" width="50" height="20" as="geometry" />
        </mxCell>
        <mxCell id="BazLZGdsGjNeDcXBGyKB-27" value="&lt;font style=&quot;font-size: 10px&quot;&gt;키(key)&lt;/font&gt;" style="rounded=0;whiteSpace=wrap;html=1;strokeColor=#000000;verticalAlign=middle;" parent="1" vertex="1">
          <mxGeometry x="145" y="80" width="50" height="20" as="geometry" />
        </mxCell>
        <mxCell id="BazLZGdsGjNeDcXBGyKB-28" value="&lt;font style=&quot;font-size: 10px&quot;&gt;myld&lt;/font&gt;" style="rounded=0;whiteSpace=wrap;html=1;strokeColor=#000000;verticalAlign=middle;strokeWidth=0.5;" parent="1" vertex="1">
          <mxGeometry x="95" y="100" width="50" height="20" as="geometry" />
        </mxCell>
        <mxCell id="BazLZGdsGjNeDcXBGyKB-29" value="&lt;font style=&quot;font-size: 10px&quot;&gt;1234&lt;/font&gt;" style="rounded=0;whiteSpace=wrap;html=1;strokeColor=#000000;verticalAlign=middle;strokeWidth=0.5;" parent="1" vertex="1">
          <mxGeometry x="145" y="100" width="50" height="20" as="geometry" />
        </mxCell>
        <mxCell id="BazLZGdsGjNeDcXBGyKB-30" value="&lt;font style=&quot;font-size: 10px&quot;&gt;asdf&lt;/font&gt;" style="rounded=0;whiteSpace=wrap;html=1;strokeColor=#000000;verticalAlign=middle;strokeWidth=0.5;" parent="1" vertex="1">
          <mxGeometry x="95" y="120" width="50" height="20" as="geometry" />
        </mxCell>
        <mxCell id="BazLZGdsGjNeDcXBGyKB-31" value="&lt;font style=&quot;font-size: 10px&quot;&gt;1234&lt;/font&gt;" style="rounded=0;whiteSpace=wrap;html=1;strokeColor=#000000;verticalAlign=middle;strokeWidth=0.5;" parent="1" vertex="1">
          <mxGeometry x="145" y="120" width="50" height="20" as="geometry" />
        </mxCell>
        <mxCell id="BazLZGdsGjNeDcXBGyKB-32" value="ID" style="text;html=1;strokeColor=none;fillColor=none;align=center;verticalAlign=middle;whiteSpace=wrap;rounded=0;" parent="1" vertex="1">
          <mxGeometry x="100" y="60" width="40" height="20" as="geometry" />
        </mxCell>
        <mxCell id="BazLZGdsGjNeDcXBGyKB-33" value="PS" style="text;html=1;strokeColor=none;fillColor=none;align=center;verticalAlign=middle;whiteSpace=wrap;rounded=0;" parent="1" vertex="1">
          <mxGeometry x="150" y="60.5" width="40" height="20" as="geometry" />
        </mxCell>
        <mxCell id="RsZVVCLeAy9aGR9kEPUE-1" value="Collection" style="rounded=1;whiteSpace=wrap;html=1;strokeColor=#000000;strokeWidth=1;verticalAlign=middle;" vertex="1" parent="1">
          <mxGeometry x="-135" y="-90" width="120" height="30" as="geometry" />
        </mxCell>
        <mxCell id="RsZVVCLeAy9aGR9kEPUE-2" value="" style="endArrow=classic;html=1;strokeWidth=0.7;exitX=0.5;exitY=0;exitDx=0;exitDy=0;entryX=0.5;entryY=1;entryDx=0;entryDy=0;" edge="1" parent="1" source="BazLZGdsGjNeDcXBGyKB-7" target="RsZVVCLeAy9aGR9kEPUE-1">
          <mxGeometry width="50" height="50" relative="1" as="geometry">
            <mxPoint x="-40" y="60" as="sourcePoint" />
            <mxPoint x="10" y="10" as="targetPoint" />
          </mxGeometry>
        </mxCell>
        <mxCell id="RsZVVCLeAy9aGR9kEPUE-3" value="" style="endArrow=classic;html=1;strokeWidth=0.7;exitX=0.5;exitY=0;exitDx=0;exitDy=0;entryX=0.5;entryY=1;entryDx=0;entryDy=0;" edge="1" parent="1" source="BazLZGdsGjNeDcXBGyKB-8" target="RsZVVCLeAy9aGR9kEPUE-1">
          <mxGeometry width="50" height="50" relative="1" as="geometry">
            <mxPoint x="-125" y="10" as="sourcePoint" />
            <mxPoint x="-65.00000000000006" y="-50" as="targetPoint" />
          </mxGeometry>
        </mxCell>
      </root>
    </mxGraphModel>
  </diagram>
  <diagram id="Irng1ZgiJqFOZ6IsEtjd" name="List">
    <mxGraphModel dx="730" dy="525" grid="1" gridSize="10" guides="1" tooltips="1" connect="1" arrows="1" fold="1" page="1" pageScale="1" pageWidth="100" pageHeight="100" math="0" shadow="0">
      <root>
        <mxCell id="a9ZNViF2IoigHAr2YNTV-0" />
        <mxCell id="a9ZNViF2IoigHAr2YNTV-1" parent="a9ZNViF2IoigHAr2YNTV-0" />
        <mxCell id="a9ZNViF2IoigHAr2YNTV-2" value="List" style="rounded=0;whiteSpace=wrap;html=1;strokeColor=#000000;strokeWidth=1;verticalAlign=middle;" vertex="1" parent="a9ZNViF2IoigHAr2YNTV-1">
          <mxGeometry x="330" y="110" width="80" height="30" as="geometry" />
        </mxCell>
        <mxCell id="a9ZNViF2IoigHAr2YNTV-3" value="Vector" style="rounded=1;whiteSpace=wrap;html=1;strokeColor=#000000;strokeWidth=1;verticalAlign=middle;" vertex="1" parent="a9ZNViF2IoigHAr2YNTV-1">
          <mxGeometry x="210" y="180" width="90" height="30" as="geometry" />
        </mxCell>
        <mxCell id="a9ZNViF2IoigHAr2YNTV-13" value="" style="edgeStyle=orthogonalEdgeStyle;rounded=0;orthogonalLoop=1;jettySize=auto;html=1;strokeWidth=0.7;" edge="1" parent="a9ZNViF2IoigHAr2YNTV-1" source="a9ZNViF2IoigHAr2YNTV-4" target="a9ZNViF2IoigHAr2YNTV-2">
          <mxGeometry relative="1" as="geometry" />
        </mxCell>
        <mxCell id="a9ZNViF2IoigHAr2YNTV-4" value="ArrayList" style="rounded=1;whiteSpace=wrap;html=1;strokeColor=#000000;strokeWidth=1;verticalAlign=middle;" vertex="1" parent="a9ZNViF2IoigHAr2YNTV-1">
          <mxGeometry x="325" y="180" width="90" height="30" as="geometry" />
        </mxCell>
        <mxCell id="a9ZNViF2IoigHAr2YNTV-5" value="LinkedList" style="rounded=1;whiteSpace=wrap;html=1;strokeColor=#000000;strokeWidth=1;verticalAlign=middle;" vertex="1" parent="a9ZNViF2IoigHAr2YNTV-1">
          <mxGeometry x="440" y="180" width="90" height="30" as="geometry" />
        </mxCell>
        <mxCell id="a9ZNViF2IoigHAr2YNTV-7" value="" style="edgeStyle=orthogonalEdgeStyle;rounded=0;orthogonalLoop=1;jettySize=auto;html=1;strokeWidth=0.7;" edge="1" parent="a9ZNViF2IoigHAr2YNTV-1" source="a9ZNViF2IoigHAr2YNTV-6" target="a9ZNViF2IoigHAr2YNTV-3">
          <mxGeometry relative="1" as="geometry" />
        </mxCell>
        <mxCell id="a9ZNViF2IoigHAr2YNTV-6" value="Stack" style="rounded=1;whiteSpace=wrap;html=1;strokeColor=#000000;strokeWidth=1;verticalAlign=middle;" vertex="1" parent="a9ZNViF2IoigHAr2YNTV-1">
          <mxGeometry x="210" y="260" width="90" height="30" as="geometry" />
        </mxCell>
        <mxCell id="a9ZNViF2IoigHAr2YNTV-11" value="" style="endArrow=classic;html=1;strokeWidth=0.7;exitX=0.5;exitY=0;exitDx=0;exitDy=0;entryX=0.25;entryY=1;entryDx=0;entryDy=0;" edge="1" parent="a9ZNViF2IoigHAr2YNTV-1" source="a9ZNViF2IoigHAr2YNTV-3" target="a9ZNViF2IoigHAr2YNTV-2">
          <mxGeometry width="50" height="50" relative="1" as="geometry">
            <mxPoint x="230" y="170" as="sourcePoint" />
            <mxPoint x="280" y="120" as="targetPoint" />
          </mxGeometry>
        </mxCell>
        <mxCell id="a9ZNViF2IoigHAr2YNTV-12" value="" style="endArrow=classic;html=1;strokeWidth=0.7;exitX=0.5;exitY=0;exitDx=0;exitDy=0;entryX=0.75;entryY=1;entryDx=0;entryDy=0;" edge="1" parent="a9ZNViF2IoigHAr2YNTV-1" source="a9ZNViF2IoigHAr2YNTV-5" target="a9ZNViF2IoigHAr2YNTV-2">
          <mxGeometry width="50" height="50" relative="1" as="geometry">
            <mxPoint x="265" y="190" as="sourcePoint" />
            <mxPoint x="360" y="150" as="targetPoint" />
          </mxGeometry>
        </mxCell>
      </root>
    </mxGraphModel>
  </diagram>
  <diagram id="AzZUSDVFL555_GpQLXfu" name="Set">
    <mxGraphModel dx="575" dy="420" grid="1" gridSize="10" guides="1" tooltips="1" connect="1" arrows="1" fold="1" page="1" pageScale="1" pageWidth="100" pageHeight="100" math="0" shadow="0">
      <root>
        <mxCell id="HWfTrJT5cOGkBnbCdizp-0" />
        <mxCell id="HWfTrJT5cOGkBnbCdizp-1" parent="HWfTrJT5cOGkBnbCdizp-0" />
        <mxCell id="9Y95-wMV9AQFi1YME8-X-0" value="Set" style="rounded=0;whiteSpace=wrap;html=1;strokeColor=#000000;strokeWidth=1;verticalAlign=middle;" vertex="1" parent="HWfTrJT5cOGkBnbCdizp-1">
          <mxGeometry x="330" y="110" width="80" height="30" as="geometry" />
        </mxCell>
        <mxCell id="9Y95-wMV9AQFi1YME8-X-1" value="HashSet" style="rounded=1;whiteSpace=wrap;html=1;strokeColor=#000000;strokeWidth=1;verticalAlign=middle;" vertex="1" parent="HWfTrJT5cOGkBnbCdizp-1">
          <mxGeometry x="210" y="180" width="90" height="30" as="geometry" />
        </mxCell>
        <mxCell id="9Y95-wMV9AQFi1YME8-X-2" value="" style="edgeStyle=orthogonalEdgeStyle;rounded=0;orthogonalLoop=1;jettySize=auto;html=1;strokeWidth=0.7;" edge="1" parent="HWfTrJT5cOGkBnbCdizp-1" source="9Y95-wMV9AQFi1YME8-X-3" target="9Y95-wMV9AQFi1YME8-X-0">
          <mxGeometry relative="1" as="geometry" />
        </mxCell>
        <mxCell id="9Y95-wMV9AQFi1YME8-X-3" value="SortedSet" style="rounded=1;whiteSpace=wrap;html=1;strokeColor=#000000;strokeWidth=1;verticalAlign=middle;" vertex="1" parent="HWfTrJT5cOGkBnbCdizp-1">
          <mxGeometry x="325" y="180" width="90" height="30" as="geometry" />
        </mxCell>
        <mxCell id="9Y95-wMV9AQFi1YME8-X-5" value="" style="edgeStyle=orthogonalEdgeStyle;rounded=0;orthogonalLoop=1;jettySize=auto;html=1;strokeWidth=0.7;entryX=0.5;entryY=1;entryDx=0;entryDy=0;" edge="1" parent="HWfTrJT5cOGkBnbCdizp-1" source="9Y95-wMV9AQFi1YME8-X-6" target="9Y95-wMV9AQFi1YME8-X-3">
          <mxGeometry relative="1" as="geometry" />
        </mxCell>
        <mxCell id="9Y95-wMV9AQFi1YME8-X-6" value="TreeSet" style="rounded=1;whiteSpace=wrap;html=1;strokeColor=#000000;strokeWidth=1;verticalAlign=middle;" vertex="1" parent="HWfTrJT5cOGkBnbCdizp-1">
          <mxGeometry x="325" y="270" width="90" height="30" as="geometry" />
        </mxCell>
        <mxCell id="9Y95-wMV9AQFi1YME8-X-7" value="" style="endArrow=classic;html=1;strokeWidth=0.7;exitX=0.5;exitY=0;exitDx=0;exitDy=0;entryX=0.25;entryY=1;entryDx=0;entryDy=0;" edge="1" parent="HWfTrJT5cOGkBnbCdizp-1" source="9Y95-wMV9AQFi1YME8-X-1" target="9Y95-wMV9AQFi1YME8-X-0">
          <mxGeometry width="50" height="50" relative="1" as="geometry">
            <mxPoint x="230" y="170" as="sourcePoint" />
            <mxPoint x="280" y="120" as="targetPoint" />
          </mxGeometry>
        </mxCell>
      </root>
    </mxGraphModel>
  </diagram>
  <diagram id="S_sE77-T7ewxOKYe093W" name="Map">
    <mxGraphModel dx="672" dy="525" grid="1" gridSize="10" guides="1" tooltips="1" connect="1" arrows="1" fold="1" page="1" pageScale="1" pageWidth="100" pageHeight="100" math="0" shadow="0">
      <root>
        <mxCell id="g7OGPDt8Lauq3mwEhao0-0" />
        <mxCell id="g7OGPDt8Lauq3mwEhao0-1" parent="g7OGPDt8Lauq3mwEhao0-0" />
        <mxCell id="IoQCXkoy-0-LgdEXKBRm-0" value="Map" style="rounded=0;whiteSpace=wrap;html=1;strokeColor=#000000;strokeWidth=1;verticalAlign=middle;" vertex="1" parent="g7OGPDt8Lauq3mwEhao0-1">
          <mxGeometry x="330" y="110" width="80" height="30" as="geometry" />
        </mxCell>
        <mxCell id="IoQCXkoy-0-LgdEXKBRm-1" value="Hashtable" style="rounded=1;whiteSpace=wrap;html=1;strokeColor=#000000;strokeWidth=1;verticalAlign=middle;" vertex="1" parent="g7OGPDt8Lauq3mwEhao0-1">
          <mxGeometry x="210" y="180" width="90" height="30" as="geometry" />
        </mxCell>
        <mxCell id="IoQCXkoy-0-LgdEXKBRm-2" value="" style="edgeStyle=orthogonalEdgeStyle;rounded=0;orthogonalLoop=1;jettySize=auto;html=1;strokeWidth=0.7;" edge="1" parent="g7OGPDt8Lauq3mwEhao0-1" source="IoQCXkoy-0-LgdEXKBRm-3" target="IoQCXkoy-0-LgdEXKBRm-0">
          <mxGeometry relative="1" as="geometry" />
        </mxCell>
        <mxCell id="IoQCXkoy-0-LgdEXKBRm-3" value="HashMap" style="rounded=1;whiteSpace=wrap;html=1;strokeColor=#000000;strokeWidth=1;verticalAlign=middle;" vertex="1" parent="g7OGPDt8Lauq3mwEhao0-1">
          <mxGeometry x="325" y="180" width="90" height="30" as="geometry" />
        </mxCell>
        <mxCell id="IoQCXkoy-0-LgdEXKBRm-4" value="" style="edgeStyle=orthogonalEdgeStyle;rounded=0;orthogonalLoop=1;jettySize=auto;html=1;strokeWidth=0.7;entryX=0.5;entryY=1;entryDx=0;entryDy=0;" edge="1" parent="g7OGPDt8Lauq3mwEhao0-1" source="IoQCXkoy-0-LgdEXKBRm-5" target="IoQCXkoy-0-LgdEXKBRm-3">
          <mxGeometry relative="1" as="geometry" />
        </mxCell>
        <mxCell id="IoQCXkoy-0-LgdEXKBRm-5" value="LinkedHashMap" style="rounded=1;whiteSpace=wrap;html=1;strokeColor=#000000;strokeWidth=1;verticalAlign=middle;" vertex="1" parent="g7OGPDt8Lauq3mwEhao0-1">
          <mxGeometry x="312.5" y="270" width="115" height="30" as="geometry" />
        </mxCell>
        <mxCell id="IoQCXkoy-0-LgdEXKBRm-6" value="" style="endArrow=classic;html=1;strokeWidth=0.7;exitX=0.5;exitY=0;exitDx=0;exitDy=0;entryX=0.25;entryY=1;entryDx=0;entryDy=0;" edge="1" parent="g7OGPDt8Lauq3mwEhao0-1" source="IoQCXkoy-0-LgdEXKBRm-1" target="IoQCXkoy-0-LgdEXKBRm-0">
          <mxGeometry width="50" height="50" relative="1" as="geometry">
            <mxPoint x="230" y="170" as="sourcePoint" />
            <mxPoint x="280" y="120" as="targetPoint" />
          </mxGeometry>
        </mxCell>
        <mxCell id="IoQCXkoy-0-LgdEXKBRm-8" value="SortedMap" style="rounded=0;whiteSpace=wrap;html=1;strokeColor=#000000;strokeWidth=1;verticalAlign=middle;" vertex="1" parent="g7OGPDt8Lauq3mwEhao0-1">
          <mxGeometry x="440" y="180" width="80" height="30" as="geometry" />
        </mxCell>
        <mxCell id="IoQCXkoy-0-LgdEXKBRm-9" value="" style="endArrow=classic;html=1;strokeWidth=0.7;exitX=0.5;exitY=0;exitDx=0;exitDy=0;entryX=0.75;entryY=1;entryDx=0;entryDy=0;" edge="1" parent="g7OGPDt8Lauq3mwEhao0-1" source="IoQCXkoy-0-LgdEXKBRm-8" target="IoQCXkoy-0-LgdEXKBRm-0">
          <mxGeometry width="50" height="50" relative="1" as="geometry">
            <mxPoint x="265" y="190" as="sourcePoint" />
            <mxPoint x="360" y="150" as="targetPoint" />
          </mxGeometry>
        </mxCell>
        <mxCell id="IoQCXkoy-0-LgdEXKBRm-10" value="" style="edgeStyle=orthogonalEdgeStyle;rounded=0;orthogonalLoop=1;jettySize=auto;html=1;strokeWidth=0.7;" edge="1" parent="g7OGPDt8Lauq3mwEhao0-1" source="IoQCXkoy-0-LgdEXKBRm-11">
          <mxGeometry relative="1" as="geometry">
            <mxPoint x="480" y="210" as="targetPoint" />
          </mxGeometry>
        </mxCell>
        <mxCell id="IoQCXkoy-0-LgdEXKBRm-11" value="TreeSet" style="rounded=1;whiteSpace=wrap;html=1;strokeColor=#000000;strokeWidth=1;verticalAlign=middle;" vertex="1" parent="g7OGPDt8Lauq3mwEhao0-1">
          <mxGeometry x="435" y="270" width="90" height="30" as="geometry" />
        </mxCell>
      </root>
    </mxGraphModel>
  </diagram>
  <diagram id="dicjLXIx758SwLs6UXAC" name="arraylist">
    <mxGraphModel dx="672" dy="525" grid="1" gridSize="10" guides="1" tooltips="1" connect="1" arrows="1" fold="1" page="1" pageScale="1" pageWidth="100" pageHeight="100" math="0" shadow="0">
      <root>
        <mxCell id="Vp10U63oGtSmwh8uyeo4-0" />
        <mxCell id="Vp10U63oGtSmwh8uyeo4-1" parent="Vp10U63oGtSmwh8uyeo4-0" />
        <mxCell id="cLFsevqcp9C94babDYds-11" value="ArrayList()" style="rounded=0;whiteSpace=wrap;html=1;strokeColor=#000000;strokeWidth=1;verticalAlign=middle;" vertex="1" parent="Vp10U63oGtSmwh8uyeo4-1">
          <mxGeometry x="210" y="160" width="180" height="30" as="geometry" />
        </mxCell>
        <mxCell id="cLFsevqcp9C94babDYds-12" value="ArrayList(Collection c)" style="rounded=0;whiteSpace=wrap;html=1;strokeColor=#000000;strokeWidth=1;verticalAlign=middle;" vertex="1" parent="Vp10U63oGtSmwh8uyeo4-1">
          <mxGeometry x="210" y="190" width="180" height="30" as="geometry" />
        </mxCell>
        <mxCell id="cLFsevqcp9C94babDYds-13" value="ArrayList(int initialCapacity)" style="rounded=0;whiteSpace=wrap;html=1;strokeColor=#000000;strokeWidth=1;verticalAlign=middle;" vertex="1" parent="Vp10U63oGtSmwh8uyeo4-1">
          <mxGeometry x="210" y="220" width="180" height="30" as="geometry" />
        </mxCell>
        <mxCell id="cLFsevqcp9C94babDYds-14" value="생성자" style="text;html=1;strokeColor=none;fillColor=none;align=center;verticalAlign=middle;whiteSpace=wrap;rounded=0;" vertex="1" parent="Vp10U63oGtSmwh8uyeo4-1">
          <mxGeometry x="210" y="140" width="40" height="20" as="geometry" />
        </mxCell>
        <mxCell id="cLFsevqcp9C94babDYds-15" value="boolean add(Object o)" style="rounded=0;whiteSpace=wrap;html=1;strokeColor=#000000;strokeWidth=1;verticalAlign=middle;" vertex="1" parent="Vp10U63oGtSmwh8uyeo4-1">
          <mxGeometry x="210" y="290" width="220" height="30" as="geometry" />
        </mxCell>
        <mxCell id="cLFsevqcp9C94babDYds-16" value="void add(int index, Object element)" style="rounded=0;whiteSpace=wrap;html=1;strokeColor=#000000;strokeWidth=1;verticalAlign=middle;" vertex="1" parent="Vp10U63oGtSmwh8uyeo4-1">
          <mxGeometry x="210" y="320" width="220" height="30" as="geometry" />
        </mxCell>
        <mxCell id="cLFsevqcp9C94babDYds-17" value="boolean addAll(Collection c)" style="rounded=0;whiteSpace=wrap;html=1;strokeColor=#000000;strokeWidth=1;verticalAlign=middle;" vertex="1" parent="Vp10U63oGtSmwh8uyeo4-1">
          <mxGeometry x="210" y="350" width="220" height="30" as="geometry" />
        </mxCell>
        <mxCell id="cLFsevqcp9C94babDYds-19" value="boolean addAll(int index, Collection c)" style="rounded=0;whiteSpace=wrap;html=1;strokeColor=#000000;strokeWidth=1;verticalAlign=middle;" vertex="1" parent="Vp10U63oGtSmwh8uyeo4-1">
          <mxGeometry x="210" y="380" width="220" height="30" as="geometry" />
        </mxCell>
        <mxCell id="cLFsevqcp9C94babDYds-20" value="추가" style="text;html=1;strokeColor=none;fillColor=none;align=center;verticalAlign=middle;whiteSpace=wrap;rounded=0;" vertex="1" parent="Vp10U63oGtSmwh8uyeo4-1">
          <mxGeometry x="210" y="270" width="40" height="20" as="geometry" />
        </mxCell>
        <mxCell id="cLFsevqcp9C94babDYds-21" value="boolean remove(Object o)" style="rounded=0;whiteSpace=wrap;html=1;strokeColor=#000000;strokeWidth=1;verticalAlign=middle;" vertex="1" parent="Vp10U63oGtSmwh8uyeo4-1">
          <mxGeometry x="460" y="290" width="220" height="30" as="geometry" />
        </mxCell>
        <mxCell id="cLFsevqcp9C94babDYds-22" value="Object remove(int index)" style="rounded=0;whiteSpace=wrap;html=1;strokeColor=#000000;strokeWidth=1;verticalAlign=middle;" vertex="1" parent="Vp10U63oGtSmwh8uyeo4-1">
          <mxGeometry x="460" y="320" width="220" height="30" as="geometry" />
        </mxCell>
        <mxCell id="cLFsevqcp9C94babDYds-23" value="boolean removeAll(Collection c)" style="rounded=0;whiteSpace=wrap;html=1;strokeColor=#000000;strokeWidth=1;verticalAlign=middle;" vertex="1" parent="Vp10U63oGtSmwh8uyeo4-1">
          <mxGeometry x="460" y="350" width="220" height="30" as="geometry" />
        </mxCell>
        <mxCell id="cLFsevqcp9C94babDYds-24" value="void clear()" style="rounded=0;whiteSpace=wrap;html=1;strokeColor=#000000;strokeWidth=1;verticalAlign=middle;" vertex="1" parent="Vp10U63oGtSmwh8uyeo4-1">
          <mxGeometry x="460" y="380" width="220" height="30" as="geometry" />
        </mxCell>
        <mxCell id="cLFsevqcp9C94babDYds-25" value="삭제" style="text;html=1;strokeColor=none;fillColor=none;align=center;verticalAlign=middle;whiteSpace=wrap;rounded=0;" vertex="1" parent="Vp10U63oGtSmwh8uyeo4-1">
          <mxGeometry x="460" y="270" width="40" height="20" as="geometry" />
        </mxCell>
        <mxCell id="cLFsevqcp9C94babDYds-26" value="int indexOf(Object o)" style="rounded=0;whiteSpace=wrap;html=1;strokeColor=#000000;strokeWidth=1;verticalAlign=middle;" vertex="1" parent="Vp10U63oGtSmwh8uyeo4-1">
          <mxGeometry x="210" y="450" width="220" height="30" as="geometry" />
        </mxCell>
        <mxCell id="cLFsevqcp9C94babDYds-27" value="int lastIndexOf(Object o)" style="rounded=0;whiteSpace=wrap;html=1;strokeColor=#000000;strokeWidth=1;verticalAlign=middle;" vertex="1" parent="Vp10U63oGtSmwh8uyeo4-1">
          <mxGeometry x="210" y="480" width="220" height="30" as="geometry" />
        </mxCell>
        <mxCell id="cLFsevqcp9C94babDYds-28" value="boolean contains(Object o)" style="rounded=0;whiteSpace=wrap;html=1;strokeColor=#000000;strokeWidth=1;verticalAlign=middle;" vertex="1" parent="Vp10U63oGtSmwh8uyeo4-1">
          <mxGeometry x="210" y="510" width="220" height="30" as="geometry" />
        </mxCell>
        <mxCell id="cLFsevqcp9C94babDYds-29" value="Object get(int index)" style="rounded=0;whiteSpace=wrap;html=1;strokeColor=#000000;strokeWidth=1;verticalAlign=middle;" vertex="1" parent="Vp10U63oGtSmwh8uyeo4-1">
          <mxGeometry x="210" y="540" width="220" height="30" as="geometry" />
        </mxCell>
        <mxCell id="cLFsevqcp9C94babDYds-30" value="검색" style="text;html=1;strokeColor=none;fillColor=none;align=center;verticalAlign=middle;whiteSpace=wrap;rounded=0;" vertex="1" parent="Vp10U63oGtSmwh8uyeo4-1">
          <mxGeometry x="210" y="430" width="40" height="20" as="geometry" />
        </mxCell>
        <mxCell id="cLFsevqcp9C94babDYds-31" value="Object set(int index, Object element)" style="rounded=0;whiteSpace=wrap;html=1;strokeColor=#000000;strokeWidth=1;verticalAlign=middle;" vertex="1" parent="Vp10U63oGtSmwh8uyeo4-1">
          <mxGeometry x="210" y="570" width="220" height="30" as="geometry" />
        </mxCell>
        <mxCell id="cLFsevqcp9C94babDYds-32" value="List subList(int fromIndex, int toIndex)" style="rounded=0;whiteSpace=wrap;html=1;strokeColor=#000000;strokeWidth=1;verticalAlign=middle;" vertex="1" parent="Vp10U63oGtSmwh8uyeo4-1">
          <mxGeometry x="460" y="450" width="220" height="30" as="geometry" />
        </mxCell>
        <mxCell id="cLFsevqcp9C94babDYds-33" value="Object[] toArray()" style="rounded=0;whiteSpace=wrap;html=1;strokeColor=#000000;strokeWidth=1;verticalAlign=middle;" vertex="1" parent="Vp10U63oGtSmwh8uyeo4-1">
          <mxGeometry x="460" y="480" width="220" height="30" as="geometry" />
        </mxCell>
        <mxCell id="cLFsevqcp9C94babDYds-34" value="Object[] toArray(Object[] a)" style="rounded=0;whiteSpace=wrap;html=1;strokeColor=#000000;strokeWidth=1;verticalAlign=middle;" vertex="1" parent="Vp10U63oGtSmwh8uyeo4-1">
          <mxGeometry x="460" y="510" width="220" height="30" as="geometry" />
        </mxCell>
        <mxCell id="cLFsevqcp9C94babDYds-35" value="boolean isEmpty()" style="rounded=0;whiteSpace=wrap;html=1;strokeColor=#000000;strokeWidth=1;verticalAlign=middle;" vertex="1" parent="Vp10U63oGtSmwh8uyeo4-1">
          <mxGeometry x="460" y="540" width="220" height="30" as="geometry" />
        </mxCell>
        <mxCell id="cLFsevqcp9C94babDYds-37" value="void trimToSize()" style="rounded=0;whiteSpace=wrap;html=1;strokeColor=#000000;strokeWidth=1;verticalAlign=middle;" vertex="1" parent="Vp10U63oGtSmwh8uyeo4-1">
          <mxGeometry x="460" y="570" width="220" height="30" as="geometry" />
        </mxCell>
        <mxCell id="cLFsevqcp9C94babDYds-38" value="int size()" style="rounded=0;whiteSpace=wrap;html=1;strokeColor=#000000;strokeWidth=1;verticalAlign=middle;" vertex="1" parent="Vp10U63oGtSmwh8uyeo4-1">
          <mxGeometry x="460" y="600" width="220" height="30" as="geometry" />
        </mxCell>
      </root>
    </mxGraphModel>
  </diagram>
</mxfile>
